{
  "asset": {
    "version": "2.0",
    "generator": "THREE.GLTFExporter"
  },
  "scenes": [
    {
      "nodes": [
        2
      ],
      "name": "AuxScene"
    }
  ],
  "scene": 0,
  "nodes": [
    {
      "name": "date_palm_leaf",
      "mesh": 0
    },
    {
      "name": "palm02",
      "mesh": 1
    },
    {
      "children": [
        0,
        1
      ]
    }
  ],
  "bufferViews": [
    {
      "buffer": 0,
      "byteOffset": 0,
      "byteLength": 41616,
      "target": 34962,
      "byteStride": 12
    },
    {
      "buffer": 0,
      "byteOffset": 41616,
      "byteLength": 41616,
      "target": 34962,
      "byteStride": 12
    },
    {
      "buffer": 0,
      "byteOffset": 83232,
      "byteLength": 27744,
      "target": 34962,
      "byteStride": 8
    },
    {
      "buffer": 0,
      "byteOffset": 110976,
      "byteLength": 6936,
      "target": 34963
    },
    {
      "buffer": 0,
      "byteOffset": 117912,
      "byteLength": 57600,
      "target": 34962,
      "byteStride": 12
    },
    {
      "buffer": 0,
      "byteOffset": 175512,
      "byteLength": 57600,
      "target": 34962,
      "byteStride": 12
    },
    {
      "buffer": 0,
      "byteOffset": 233112,
      "byteLength": 38400,
      "target": 34962,
      "byteStride": 8
    },
    {
      "buffer": 0,
      "byteOffset": 271512,
      "byteLength": 9600,
      "target": 34963
    }
  ],
  "buffers": [
    {
      "byteLength": 281112,
      "uri": "data:application/octet-stream;base64,"
    }
  ],
  "accessors": [
    {
      "bufferView": 0,
      "componentType": 5126,
      "count": 3468,
      "max": [
        27.004379272460938,
        104.16609954833984,
        19.798429489135742
      ],
      "min": [
        -11.376704216003418,
        0,
        -15.414712905883789
      ],
      "type": "VEC3"
    },
    {
      "bufferView": 1,
      "componentType": 5126,
      "count": 3468,
      "max": [
        1,
        0.9999538064002991,
        0.997748851776123
      ],
      "min": [
        -0.994271457195282,
        -0.9994125366210938,
        -0.9999907612800598
      ],
      "type": "VEC3"
    },
    {
      "bufferView": 2,
      "componentType": 5126,
      "count": 3468,
      "max": [
        0.9985389709472656,
        7.695130825042725
      ],
      "min": [
        0.00048828125,
        -0.9900000095367432
      ],
      "type": "VEC2"
    },
    {
      "bufferView": 3,
      "componentType": 5123,
      "count": 3468,
      "max": [
        3467
      ],
      "min": [
        0
      ],
      "type": "SCALAR"
    },
    {
      "bufferView": 4,
      "componentType": 5126,
      "count": 4800,
      "max": [
        41.708099365234375,
        120.10064697265625,
        37.081085205078125
      ],
      "min": [
        -30.811504364013672,
        48.17243194580078,
        -32.61680221557617
      ],
      "type": "VEC3"
    },
    {
      "bufferView": 5,
      "componentType": 5126,
      "count": 4800,
      "max": [
        0.9998440146446228,
        0.9995350241661072,
        0.9999030232429504
      ],
      "min": [
        -0.9989110231399536,
        -0.9995350241661072,
        -0.9997569918632507
      ],
      "type": "VEC3"
    },
    {
      "bufferView": 6,
      "componentType": 5126,
      "count": 4800,
      "max": [
        1,
        -2.9802322387695312e-8
      ],
      "min": [
        2.9802322387695312e-8,
        -1
      ],
      "type": "VEC2"
    },
    {
      "bufferView": 7,
      "componentType": 5123,
      "count": 4800,
      "max": [
        4799
      ],
      "min": [
        0
      ],
      "type": "SCALAR"
    }
  ],
  "materials": [
    {
      "pbrMetallicRoughness": {
        "metallicFactor": 0.5,
        "roughnessFactor": 0.5,
        "baseColorTexture": {
          "index": 0
        }
      },
      "name": "palm02"
    },
    {
      "pbrMetallicRoughness": {
        "metallicFactor": 0.5,
        "roughnessFactor": 0.5,
        "baseColorTexture": {
          "index": 1
        }
      },
      "name": "date_palm_leaf"
    }
  ],
  "textures": [
    {
      "sampler": 0,
      "source": 0
    },
    {
      "sampler": 1,
      "source": 1
    }
  ],
  "samplers": [
    {
      "magFilter": 9729,
      "minFilter": 9987
    },
    {
      "magFilter": 9729,
      "minFilter": 9987
    }
  ],
  "images": [
    {
      "mimeType": "image/png",
      "uri": "data:image/png;base64,"
    },
    {
      "mimeType": "image/png",
      "uri": "data:image/png;base64,"
    }
  ],
  "meshes": [
    {
      "primitives": [
        {
          "mode": 4,
          "attributes": {
            "POSITION": 0,
            "NORMAL": 1,
            "TEXCOORD_0": 2
          },
          "indices": 3,
          "material": 0
        }
      ]
    },
    {
      "primitives": [
        {
          "mode": 4,
          "attributes": {
            "POSITION": 4,
            "NORMAL": 5,
            "TEXCOORD_0": 6
          },
          "indices": 7,
          "material": 1
        }
      ]
    }
  ]
}